<svg width="264" height="146" viewBox="0 0 264 146" fill="none" xmlns="http://www.w3.org/2000/svg">
<path fill-rule="evenodd" clip-rule="evenodd" d="M260.776 72.6186C260.776 110.716 235.168 141.953 202.602 144.974V145.235H137.723C125.523 145.235 115.541 133.797 115.541 119.815C115.541 105.835 125.523 94.3953 137.723 94.3953H199.832C223.018 94.6457 227.11 53.6878 199.832 50.8414H137.723C125.525 50.8414 115.541 39.4 115.541 25.4216C115.541 11.4388 125.523 0 137.723 0H202.602V0.260703C235.168 3.28335 260.776 34.5198 260.776 72.6186Z" fill="#525252"/>
<path fill-rule="evenodd" clip-rule="evenodd" d="M0 72.6178C0 34.5198 25.6078 3.28335 58.1731 0.260703V0H123.053C124.7 0 126.305 0.210822 127.852 0.606389C117.939 3.13646 110.469 13.3267 110.469 25.4198C110.469 37.5111 117.94 47.7049 127.852 50.236C126.305 50.6313 124.7 50.8414 123.053 50.8414H60.9436C37.7583 50.5909 33.6656 91.5471 60.9436 94.3953H123.053C124.699 94.3953 126.305 94.6051 127.852 94.9989C117.939 97.53 110.469 107.722 110.469 119.815C110.469 131.909 117.939 142.098 127.851 144.63C126.305 145.025 124.699 145.235 123.053 145.235H58.1731V144.974C25.6078 141.953 0 110.716 0 72.6178Z" fill="#525252"/>
<path fill-rule="evenodd" clip-rule="evenodd" d="M263.311 72.6186C263.311 110.716 237.704 141.953 205.138 144.974V145.235H140.259C128.059 145.235 118.077 133.797 118.077 119.815C118.077 105.835 128.059 94.3953 140.259 94.3953H202.367C225.553 94.6457 229.646 53.6878 202.367 50.8414H140.259C128.06 50.8414 118.077 39.4 118.077 25.4216C118.077 11.4388 128.059 0 140.259 0H205.138V0.260703C237.704 3.28335 263.311 34.5198 263.311 72.6186Z" fill="#FFCB00"/>
<path fill-rule="evenodd" clip-rule="evenodd" d="M127.363 95.0255C117.512 97.8556 110.469 108.285 110.469 119.815C110.469 131.348 117.483 141.666 127.395 144.496V142.293C120.849 137.861 115.524 129.114 115.524 119.815C115.524 110.518 120.459 101.438 127.285 97.419L127.363 95.0255Z" fill="white"/>
<path fill-rule="evenodd" clip-rule="evenodd" d="M127.708 0.542236C117.576 3.34078 110.469 13.5829 110.469 25.1137C110.469 36.6463 116.92 47.0411 127.678 50.2478L127.395 47.9265C120.849 43.4943 115.524 34.4128 115.524 25.1137C115.524 15.8164 120.695 6.92345 127.333 2.99185L127.708 0.542236Z" fill="white"/>
</svg>
