<svg width="60" height="60" viewBox="0 0 60 60" fill="none" xmlns="http://www.w3.org/2000/svg">
<path d="M42.5 15V40.6981L46.25 44.4757L50 40.6981V15H42.5ZM42.5 12.5H50V7.5368H42.5V12.5ZM52.5 17.5V41.2132C52.5 41.5431 52.3696 41.8597 52.1371 42.0938L47.1371 47.1306C46.6482 47.6231 45.8518 47.6231 45.3629 47.1306L40.3629 42.0938C40.1304 41.8597 40 41.5431 40 41.2132V35H38.75C36.6789 35 35 33.3211 35 31.25V23.75C35 21.6789 36.6789 20 38.75 20H40V17.5H15V36.25C15 36.9404 14.4404 37.5 13.75 37.5H12.5C8.35786 37.5 5 40.8579 5 45C5 49.1421 8.35786 52.5 12.5 52.5H55V17.5H52.5ZM52.5 15H56.25C56.9404 15 57.5 15.5596 57.5 16.25V53.75C57.5 54.4404 56.9404 55 56.25 55H12.5C6.97715 55 2.5 50.5228 2.5 45V16.25C2.5 10.0368 7.5368 5 13.75 5C14.4404 5 15 5.55964 15 6.25V15H40V6.2868C40 5.59644 40.5596 5.0368 41.25 5.0368H51.25C51.9404 5.0368 52.5 5.59644 52.5 6.2868V15ZM40 22.5H38.75C38.0596 22.5 37.5 23.0596 37.5 23.75V31.25C37.5 31.9404 38.0596 32.5 38.75 32.5H40V22.5ZM5 38.3854C6.83236 36.3094 9.51327 35 12.5 35V7.58861C8.25963 8.19515 5 11.8419 5 16.25V38.3854ZM21.25 20H28.75C30.8211 20 32.5 21.6789 32.5 23.75V31.25C32.5 33.3211 30.8211 35 28.75 35H21.25C19.1789 35 17.5 33.3211 17.5 31.25V23.75C17.5 21.6789 19.1789 20 21.25 20ZM21.25 22.5C20.5596 22.5 20 23.0596 20 23.75V31.25C20 31.9404 20.5596 32.5 21.25 32.5H28.75C29.4404 32.5 30 31.9404 30 31.25V23.75C30 23.0596 29.4404 22.5 28.75 22.5H21.25ZM18.75 42.5C18.0596 42.5 17.5 41.9404 17.5 41.25C17.5 40.5596 18.0596 40 18.75 40H36.25C36.9404 40 37.5 40.5596 37.5 41.25C37.5 41.9404 36.9404 42.5 36.25 42.5H18.75ZM18.75 47.5C18.0596 47.5 17.5 46.9404 17.5 46.25C17.5 45.5596 18.0596 45 18.75 45H38.75C39.4404 45 40 45.5596 40 46.25C40 46.9404 39.4404 47.5 38.75 47.5H18.75Z" fill="white"/>
</svg>
