<svg width="238" height="180" viewBox="0 0 238 180" fill="none" xmlns="http://www.w3.org/2000/svg">
<path fill-rule="evenodd" clip-rule="evenodd" d="M227.704 59.3835C227.704 90.5373 206.764 116.082 180.133 118.552V118.765H127.079C117.102 118.765 108.939 109.412 108.939 97.9782C108.939 86.546 117.102 77.1913 127.079 77.1913H177.867C196.828 77.3961 200.174 43.9029 177.867 41.5753H127.079C117.103 41.5753 108.939 32.2192 108.939 20.7884C108.939 9.35406 117.102 0 127.079 0H180.133V0.213189C206.764 2.68495 227.704 28.2284 227.704 59.3835Z" fill="#525252"/>
<path fill-rule="evenodd" clip-rule="evenodd" d="M15.894 129.372L16.4748 133.092C15.8776 132.87 15.2631 132.699 14.6321 132.585C14.0065 132.465 13.3808 132.41 12.7611 132.41C10.1621 132.41 8.00071 133.257 6.28905 134.952C4.57145 136.646 3.71355 138.768 3.71355 141.321C3.71355 144.021 4.62861 146.241 6.45383 147.986C8.27967 149.732 10.6344 150.602 13.5117 150.602C13.9667 150.602 14.439 150.567 14.9277 150.493C15.4164 150.419 15.9399 150.305 16.5084 150.152L15.7579 153.837C15.712 153.849 15.6497 153.861 15.5587 153.866C14.7059 153.98 14.0628 154.036 13.6424 154.036C9.51392 154.036 6.20417 152.882 3.72462 150.573C1.23913 148.259 0 145.188 0 141.355C0 137.789 1.17068 134.837 3.51412 132.5C5.85673 130.163 8.8483 128.992 12.4932 128.992C12.8409 128.992 13.1762 128.998 13.5003 129.014C13.8297 129.031 14.1372 129.06 14.4267 129.093C14.6261 129.123 14.9451 129.184 15.3766 129.276C15.6097 129.322 15.7805 129.355 15.894 129.372ZM22.7577 128.889V141.855C23.2587 141.31 23.822 140.894 24.4417 140.615C25.0614 140.331 25.727 140.189 26.4375 140.189C27.74 140.189 28.7062 140.615 29.3493 141.474C29.9864 142.327 30.3043 143.623 30.3043 145.371V153.7L26.9895 154.003V146.085C26.9895 145.227 26.8187 144.574 26.4834 144.119C26.1421 143.663 25.6523 143.437 25.0041 143.437C24.276 143.437 23.7138 143.686 23.3323 144.193C22.9518 144.698 22.7577 145.45 22.7577 146.433V153.7L19.4428 154.003V129.242L22.7577 128.889ZM38.1128 147.621C37.5157 147.621 37.0147 147.804 36.6221 148.162C36.2304 148.527 36.0311 148.957 36.0311 149.471C36.0311 149.994 36.2244 150.431 36.6108 150.784C37.0034 151.142 37.5044 151.319 38.1128 151.319C38.7099 151.319 39.2099 151.142 39.6024 150.784C39.995 150.431 40.1936 149.994 40.1936 149.471C40.1936 148.957 39.995 148.527 39.5965 148.162C39.1926 147.804 38.6986 147.621 38.1128 147.621ZM43.3611 145.006V153.668L40.3244 154.003V152.717C39.9491 153.183 39.5002 153.542 38.9768 153.786C38.4594 154.031 37.8562 154.15 37.1803 154.15C35.934 154.15 34.8994 153.718 34.069 152.853C33.2337 151.983 32.8177 150.902 32.8177 149.601C32.8177 148.235 33.2388 147.122 34.0751 146.263C34.9107 145.403 36.0086 144.972 37.3623 144.972C37.9759 144.972 38.5166 145.068 38.994 145.262C39.4717 145.455 39.8694 145.745 40.1936 146.121V144.937C40.1936 144.307 40.0237 143.868 39.6762 143.623C39.3355 143.38 38.7038 143.255 37.7938 143.255C37.2764 143.255 36.7478 143.3 36.2244 143.396C35.6958 143.492 35.1671 143.623 34.6323 143.805L35.4166 140.639C36.1281 140.535 36.7478 140.467 37.2877 140.423C37.8285 140.377 38.3061 140.354 38.7325 140.354C40.4154 140.354 41.6097 140.66 42.3089 141.281C43.0092 141.895 43.3611 143.14 43.3611 145.006ZM57.6294 145.371V153.7L54.3145 154.003V146.085C54.3145 145.227 54.1438 144.574 53.8084 144.119C53.4669 143.663 52.9773 143.437 52.329 143.437C51.601 143.437 51.0386 143.686 50.6573 144.193C50.2768 144.698 50.0827 145.45 50.0827 146.433V153.7L46.7678 154.003V140.707L50.0827 140.354V141.855C50.5837 141.31 51.147 140.9 51.7665 140.615C52.3862 140.331 53.0518 140.189 53.7625 140.189C55.065 140.189 56.0313 140.615 56.6744 141.474C57.3113 142.327 57.6294 143.623 57.6294 145.371ZM67.2056 143.323C66.1883 143.323 65.3181 143.704 64.6015 144.466C63.8846 145.221 63.5267 146.143 63.5267 147.217C63.5267 148.309 63.8795 149.225 64.5902 149.976C65.3007 150.727 66.177 151.101 67.2056 151.101C68.23 151.101 69.094 150.727 69.7996 149.976C70.5041 149.225 70.8567 148.309 70.8567 147.217C70.8567 146.143 70.5041 145.221 69.7996 144.466C69.094 143.704 68.23 143.323 67.2056 143.323ZM74.1388 128.889V153.632L70.7893 153.935V152.433C70.277 152.991 69.6799 153.411 68.9979 153.689C68.3149 153.974 67.5644 154.116 66.7393 154.116C64.8969 154.116 63.3449 153.445 62.0768 152.109C60.8082 150.772 60.1772 149.129 60.1772 147.184C60.1772 145.256 60.8369 143.612 62.1507 142.254C63.4696 140.9 65.0625 140.223 66.9388 140.223C67.7179 140.223 68.4233 140.347 69.0489 140.604C69.6739 140.86 70.2545 141.258 70.7893 141.787V129.242L74.1388 128.889ZM84.5391 140.456V143.704C83.1751 143.727 82.2365 143.983 81.7244 144.471C81.213 144.96 80.9566 145.876 80.9566 147.217V153.7L77.6416 154.003V140.707L80.9566 140.354V142.071C81.3778 141.525 81.8839 141.121 82.4749 140.854C83.0608 140.587 83.7489 140.456 84.5391 140.456ZM90.7782 147.621C90.1811 147.621 89.6801 147.804 89.2875 148.162C88.8958 148.527 88.6965 148.957 88.6965 149.471C88.6965 149.994 88.8896 150.431 89.2762 150.784C89.6688 151.142 90.1698 151.319 90.7782 151.319C91.3753 151.319 91.8753 151.142 92.2678 150.784C92.6604 150.431 92.8588 149.994 92.8588 149.471C92.8588 148.957 92.6604 148.527 92.2617 148.162C91.8579 147.804 91.364 147.621 90.7782 147.621ZM96.0265 145.006V153.668L92.9898 154.003V152.717C92.6145 153.183 92.1656 153.542 91.6422 153.786C91.1248 154.031 90.5216 154.15 89.8457 154.15C88.5994 154.15 87.5645 153.718 86.7343 152.853C85.899 151.983 85.4829 150.902 85.4829 149.601C85.4829 148.235 85.9042 147.122 86.7405 146.263C87.5759 145.403 88.674 144.972 90.0275 144.972C90.6412 144.972 91.182 145.068 91.6594 145.262C92.1371 145.455 92.5347 145.745 92.8588 146.121V144.937C92.8588 144.307 92.6891 143.868 92.3414 143.623C92.001 143.38 91.3692 143.255 90.4592 143.255C89.9418 143.255 89.4132 143.3 88.8896 143.396C88.3612 143.492 87.8325 143.623 87.2977 143.805L88.082 140.639C88.7935 140.535 89.4132 140.467 89.9531 140.423C90.4939 140.377 90.9713 140.354 91.3976 140.354C93.0808 140.354 94.2749 140.66 94.9743 141.281C95.6746 141.895 96.0265 143.14 96.0265 145.006ZM103.875 147.621C103.278 147.621 102.777 147.804 102.384 148.162C101.992 148.527 101.793 148.957 101.793 149.471C101.793 149.994 101.986 150.431 102.373 150.784C102.765 151.142 103.266 151.319 103.875 151.319C104.472 151.319 104.972 151.142 105.364 150.784C105.757 150.431 105.955 149.994 105.955 149.471C105.955 148.957 105.757 148.527 105.358 148.162C104.954 147.804 104.461 147.621 103.875 147.621ZM109.123 145.006V153.668L106.086 154.003V152.717C105.711 153.183 105.262 153.542 104.739 153.786C104.221 154.031 103.618 154.15 102.942 154.15C101.696 154.15 100.661 153.718 99.8309 152.853C98.9956 151.983 98.5794 150.902 98.5794 149.601C98.5794 148.235 99.0007 147.122 99.837 146.263C100.672 145.403 101.771 144.972 103.124 144.972C103.738 144.972 104.279 145.068 104.756 145.262C105.234 145.455 105.631 145.745 105.955 146.121V144.937C105.955 144.307 105.786 143.868 105.438 143.623C105.097 143.38 104.466 143.255 103.556 143.255C103.038 143.255 102.51 143.3 101.986 143.396C101.458 143.492 100.929 143.623 100.394 143.805L101.179 140.639C101.89 140.535 102.51 140.467 103.05 140.423C103.59 140.377 104.068 140.354 104.494 140.354C106.177 140.354 107.372 140.66 108.071 141.281C108.771 141.895 109.123 143.14 109.123 145.006ZM137.637 129.372L138.218 133.092C137.62 132.87 137.006 132.699 136.375 132.585C135.75 132.465 135.124 132.41 134.504 132.41C131.905 132.41 129.744 133.257 128.032 134.952C126.314 136.646 125.456 138.768 125.456 141.321C125.456 144.021 126.372 146.241 128.197 147.986C130.023 149.732 132.377 150.602 135.255 150.602C135.71 150.602 136.182 150.567 136.671 150.493C137.159 150.419 137.683 150.305 138.251 150.152L137.501 153.837C137.455 153.849 137.393 153.861 137.302 153.866C136.449 153.98 135.806 154.036 135.385 154.036C131.257 154.036 127.947 152.882 125.468 150.573C122.982 148.259 121.743 145.188 121.743 141.355C121.743 137.789 122.914 134.837 125.257 132.5C127.6 130.163 130.591 128.992 134.236 128.992C134.584 128.992 134.919 128.998 135.243 129.014C135.573 129.031 135.88 129.06 136.17 129.093C136.369 129.123 136.688 129.184 137.12 129.276C137.353 129.322 137.523 129.355 137.637 129.372ZM147.299 143.187C146.298 143.187 145.451 143.562 144.757 144.312C144.063 145.063 143.716 145.984 143.716 147.081C143.716 148.174 144.063 149.088 144.751 149.839C145.439 150.591 146.287 150.966 147.299 150.966C148.305 150.966 149.164 150.585 149.863 149.822C150.564 149.067 150.91 148.15 150.91 147.081C150.91 146.007 150.564 145.085 149.863 144.329C149.164 143.568 148.305 143.187 147.299 143.187ZM147.299 140.12C149.227 140.12 150.871 140.802 152.229 142.168C153.583 143.538 154.26 145.189 154.26 147.116C154.26 149.037 153.583 150.681 152.229 152.04C150.871 153.4 149.227 154.083 147.299 154.083C145.354 154.083 143.71 153.406 142.374 152.058C141.038 150.709 140.367 149.061 140.367 147.116C140.367 145.177 141.044 143.522 142.391 142.163C143.739 140.802 145.377 140.12 147.299 140.12ZM167.84 145.371V153.7L164.525 154.003V146.085C164.525 145.227 164.354 144.574 164.019 144.119C163.678 143.663 163.188 143.437 162.54 143.437C161.812 143.437 161.249 143.686 160.868 144.193C160.488 144.698 160.293 145.45 160.293 146.433V153.7L156.979 154.003V140.707L160.293 140.354V141.855C160.794 141.31 161.358 140.9 161.977 140.615C162.597 140.331 163.263 140.189 163.973 140.189C165.276 140.189 166.242 140.615 166.885 141.474C167.522 142.327 167.84 143.623 167.84 145.371ZM181.784 141.588L180.351 144.289C179.731 143.903 179.191 143.63 178.736 143.481C178.281 143.328 177.809 143.255 177.32 143.255C176.286 143.255 175.432 143.612 174.755 144.334C174.079 145.058 173.737 145.979 173.737 147.086C173.737 148.197 174.073 149.111 174.744 149.828C175.415 150.545 176.274 150.902 177.32 150.902C177.809 150.902 178.326 150.784 178.872 150.55C179.413 150.318 180.004 149.97 180.636 149.504L181.853 152.5C181.13 152.991 180.374 153.37 179.578 153.638C178.781 153.905 178.031 154.036 177.32 154.036C175.352 154.036 173.709 153.37 172.379 152.034C171.054 150.704 170.388 149.067 170.388 147.122C170.388 145.164 171.047 143.516 172.372 142.174C173.692 140.827 175.341 140.154 177.32 140.154C177.986 140.154 178.696 140.274 179.447 140.514C180.192 140.751 180.976 141.111 181.784 141.588ZM195.985 144.067L187.318 149.67C187.637 150.136 188.023 150.477 188.467 150.698C188.91 150.92 189.428 151.033 190.019 151.033C190.707 151.033 191.384 150.875 192.05 150.55C192.72 150.226 193.346 149.754 193.937 149.135L195.103 151.881C194.427 152.58 193.635 153.127 192.726 153.507C191.822 153.889 190.889 154.083 189.922 154.083C188.074 154.083 186.516 153.395 185.236 152.023C183.957 150.654 183.32 148.975 183.32 146.985C183.32 145.052 183.968 143.431 185.259 142.122C186.556 140.808 188.143 140.154 190.019 140.154C191.219 140.154 192.339 140.497 193.386 141.179C194.432 141.861 195.297 142.822 195.985 144.067ZM192.101 143.636C191.777 143.38 191.441 143.192 191.082 143.066C190.73 142.947 190.349 142.884 189.95 142.884C188.927 142.884 188.063 143.238 187.358 143.936C186.652 144.636 186.299 145.488 186.299 146.502C186.299 146.656 186.306 146.813 186.323 146.969C186.339 147.122 186.368 147.297 186.403 147.485L192.101 143.636ZM201.347 152.53V159.633L198.032 159.952V140.707L201.347 140.354V141.855C201.859 141.31 202.45 140.907 203.127 140.633C203.81 140.36 204.566 140.223 205.413 140.223C207.255 140.223 208.808 140.889 210.071 142.213C211.328 143.538 211.959 145.177 211.959 147.122C211.959 149.037 211.299 150.681 209.985 152.04C208.666 153.4 207.08 154.083 205.215 154.083C204.412 154.083 203.701 153.957 203.07 153.707C202.445 153.457 201.87 153.064 201.347 152.53ZM204.964 143.187C203.941 143.187 203.07 143.562 202.354 144.318C201.637 145.073 201.279 145.995 201.279 147.081C201.279 148.174 201.637 149.088 202.354 149.839C203.07 150.591 203.941 150.966 204.964 150.966C205.994 150.966 206.858 150.591 207.557 149.839C208.256 149.088 208.609 148.174 208.609 147.081C208.609 145.984 208.256 145.063 207.552 144.312C206.846 143.562 205.981 143.187 204.964 143.187ZM218.225 134.878V140.49H220.859V143.674H218.225V147.673C218.225 148.906 218.413 149.732 218.783 150.147C219.159 150.562 219.847 150.772 220.859 150.772V154.003H220.591C218.493 154.003 217.026 153.599 216.184 152.786C215.348 151.978 214.928 150.534 214.928 148.458V143.674H213.694V140.49H214.928V136.578L218.225 134.878Z" fill="white"/>
<path d="M129.718 168.582V165.593H128.601V165.193H131.287V165.593H130.166V168.582H129.718ZM131.696 168.582V165.193H132.112V166.409C132.307 166.184 132.552 166.071 132.848 166.071C133.029 166.071 133.187 166.107 133.321 166.18C133.455 166.251 133.551 166.349 133.608 166.476C133.667 166.602 133.696 166.785 133.696 167.026V168.582H133.28V167.026C133.28 166.818 133.234 166.667 133.143 166.573C133.054 166.477 132.927 166.429 132.762 166.429C132.639 166.429 132.522 166.462 132.413 166.527C132.305 166.59 132.228 166.676 132.182 166.785C132.136 166.895 132.112 167.046 132.112 167.239V168.582H131.696ZM136.012 167.791L136.442 167.844C136.374 168.095 136.249 168.29 136.065 168.429C135.882 168.568 135.648 168.637 135.362 168.637C135.003 168.637 134.718 168.527 134.507 168.306C134.298 168.085 134.193 167.774 134.193 167.375C134.193 166.962 134.299 166.641 134.512 166.413C134.724 166.185 135 166.071 135.339 166.071C135.668 166.071 135.936 166.183 136.144 166.406C136.352 166.63 136.456 166.944 136.456 167.349C136.456 167.374 136.455 167.411 136.454 167.46H134.623C134.638 167.73 134.714 167.937 134.852 168.08C134.989 168.223 135.16 168.295 135.365 168.295C135.517 168.295 135.648 168.255 135.755 168.175C135.863 168.095 135.949 167.967 136.012 167.791ZM134.646 167.118H136.017C135.998 166.912 135.946 166.757 135.859 166.654C135.727 166.493 135.555 166.413 135.344 166.413C135.153 166.413 134.992 166.477 134.861 166.605C134.731 166.733 134.66 166.904 134.646 167.118ZM138.337 168.582V165.193H139.616C139.841 165.193 140.013 165.204 140.131 165.225C140.298 165.253 140.437 165.306 140.55 165.385C140.662 165.462 140.752 165.57 140.82 165.711C140.889 165.851 140.924 166.005 140.924 166.173C140.924 166.461 140.832 166.705 140.649 166.906C140.466 167.104 140.134 167.204 139.655 167.204H138.786V168.582H138.337ZM138.786 166.804H139.662C139.952 166.804 140.157 166.75 140.279 166.642C140.401 166.534 140.462 166.382 140.462 166.187C140.462 166.045 140.426 165.924 140.353 165.824C140.282 165.722 140.188 165.655 140.071 165.623C139.996 165.603 139.856 165.593 139.653 165.593H138.786V166.804ZM141.437 168.582V166.127H141.812V166.499C141.907 166.325 141.995 166.21 142.075 166.154C142.157 166.099 142.246 166.071 142.343 166.071C142.484 166.071 142.626 166.116 142.771 166.205L142.628 166.591C142.526 166.531 142.424 166.501 142.323 166.501C142.232 166.501 142.15 166.529 142.078 166.584C142.005 166.638 141.953 166.714 141.923 166.811C141.876 166.959 141.853 167.121 141.853 167.296V168.582H141.437ZM143.021 165.671V165.193H143.437V165.671H143.021ZM143.021 168.582V166.127H143.437V168.582H143.021ZM144.072 168.582V166.127H144.447V166.476C144.627 166.206 144.888 166.071 145.228 166.071C145.376 166.071 145.512 166.098 145.635 166.152C145.76 166.204 145.853 166.274 145.915 166.36C145.976 166.446 146.019 166.549 146.044 166.668C146.06 166.745 146.067 166.879 146.067 167.072V168.582H145.651V167.088C145.651 166.919 145.635 166.792 145.603 166.709C145.57 166.624 145.512 166.557 145.429 166.508C145.348 166.457 145.251 166.432 145.14 166.432C144.963 166.432 144.81 166.488 144.68 166.601C144.552 166.713 144.488 166.926 144.488 167.241V168.582H144.072ZM147.616 168.209L147.676 168.577C147.559 168.602 147.454 168.614 147.362 168.614C147.211 168.614 147.094 168.59 147.01 168.542C146.927 168.494 146.869 168.432 146.835 168.355C146.801 168.276 146.784 168.112 146.784 167.863V166.45H146.479V166.127H146.784V165.519L147.198 165.269V166.127H147.616V166.45H147.198V167.886C147.198 168.004 147.205 168.081 147.218 168.115C147.234 168.149 147.258 168.175 147.29 168.196C147.324 168.216 147.372 168.226 147.433 168.226C147.48 168.226 147.54 168.22 147.616 168.209ZM149.396 168.582V165.193H150.674C150.899 165.193 151.071 165.204 151.19 165.225C151.356 165.253 151.496 165.306 151.608 165.385C151.721 165.462 151.811 165.57 151.878 165.711C151.948 165.851 151.983 166.005 151.983 166.173C151.983 166.461 151.891 166.705 151.707 166.906C151.524 167.104 151.193 167.204 150.713 167.204H149.844V168.582H149.396ZM149.844 166.804H150.72C151.01 166.804 151.216 166.75 151.338 166.642C151.459 166.534 151.52 166.382 151.52 166.187C151.52 166.045 151.484 165.924 151.412 165.824C151.341 165.722 151.247 165.655 151.13 165.623C151.054 165.603 150.915 165.593 150.711 165.593H149.844V166.804ZM154.181 167.791L154.611 167.844C154.543 168.095 154.417 168.29 154.234 168.429C154.051 168.568 153.816 168.637 153.531 168.637C153.172 168.637 152.887 168.527 152.676 168.306C152.466 168.085 152.362 167.774 152.362 167.375C152.362 166.962 152.468 166.641 152.681 166.413C152.893 166.185 153.169 166.071 153.508 166.071C153.836 166.071 154.105 166.183 154.313 166.406C154.521 166.63 154.625 166.944 154.625 167.349C154.625 167.374 154.624 167.411 154.622 167.46H152.792C152.807 167.73 152.883 167.937 153.02 168.08C153.158 168.223 153.329 168.295 153.534 168.295C153.686 168.295 153.816 168.255 153.924 168.175C154.032 168.095 154.118 167.967 154.181 167.791ZM152.815 167.118H154.185C154.167 166.912 154.115 166.757 154.028 166.654C153.896 166.493 153.724 166.413 153.513 166.413C153.322 166.413 153.161 166.477 153.03 166.605C152.9 166.733 152.829 166.904 152.815 167.118ZM154.981 167.354C154.981 166.9 155.107 166.563 155.36 166.344C155.571 166.162 155.828 166.071 156.132 166.071C156.469 166.071 156.745 166.182 156.959 166.404C157.173 166.624 157.281 166.93 157.281 167.319C157.281 167.635 157.233 167.884 157.137 168.066C157.043 168.246 156.905 168.387 156.724 168.487C156.543 168.587 156.346 168.637 156.132 168.637C155.788 168.637 155.51 168.527 155.297 168.306C155.086 168.086 154.981 167.769 154.981 167.354ZM155.408 167.354C155.408 167.668 155.477 167.904 155.614 168.061C155.751 168.217 155.924 168.295 156.132 168.295C156.338 168.295 156.51 168.216 156.647 168.059C156.784 167.902 156.853 167.662 156.853 167.34C156.853 167.037 156.784 166.807 156.645 166.651C156.508 166.494 156.337 166.416 156.132 166.416C155.924 166.416 155.751 166.493 155.614 166.649C155.477 166.805 155.408 167.04 155.408 167.354ZM157.771 169.522V166.127H158.15V166.446C158.239 166.321 158.34 166.228 158.453 166.166C158.565 166.103 158.701 166.071 158.862 166.071C159.071 166.071 159.256 166.125 159.416 166.233C159.577 166.341 159.698 166.493 159.779 166.691C159.861 166.886 159.902 167.101 159.902 167.336C159.902 167.587 159.856 167.813 159.766 168.015C159.676 168.216 159.545 168.37 159.373 168.478C159.201 168.584 159.021 168.637 158.832 168.637C158.693 168.637 158.568 168.608 158.457 168.549C158.348 168.491 158.258 168.417 158.187 168.327V169.522H157.771ZM158.147 167.368C158.147 167.684 158.211 167.917 158.339 168.068C158.467 168.219 158.622 168.295 158.804 168.295C158.989 168.295 159.147 168.217 159.278 168.061C159.41 167.904 159.477 167.662 159.477 167.333C159.477 167.02 159.412 166.786 159.282 166.631C159.154 166.475 159.001 166.397 158.822 166.397C158.645 166.397 158.488 166.48 158.351 166.647C158.215 166.812 158.147 167.052 158.147 167.368ZM160.397 168.582V165.193H160.813V168.582H160.397ZM163.14 167.791L163.57 167.844C163.503 168.095 163.377 168.29 163.194 168.429C163.01 168.568 162.776 168.637 162.491 168.637C162.132 168.637 161.847 168.527 161.636 168.306C161.426 168.085 161.321 167.774 161.321 167.375C161.321 166.962 161.428 166.641 161.64 166.413C161.853 166.185 162.129 166.071 162.468 166.071C162.796 166.071 163.064 166.183 163.272 166.406C163.48 166.63 163.584 166.944 163.584 167.349C163.584 167.374 163.583 167.411 163.582 167.46H161.751C161.767 167.73 161.843 167.937 161.98 168.08C162.117 168.223 162.288 168.295 162.493 168.295C162.646 168.295 162.776 168.255 162.884 168.175C162.992 168.095 163.077 167.967 163.14 167.791ZM161.774 167.118H163.145C163.127 166.912 163.074 166.757 162.988 166.654C162.855 166.493 162.683 166.413 162.472 166.413C162.281 166.413 162.12 166.477 161.989 166.605C161.86 166.733 161.788 166.904 161.774 167.118Z" fill="white"/>
<path fill-rule="evenodd" clip-rule="evenodd" d="M14.4561 59.3829C14.4561 28.2284 35.3967 2.68495 62.0268 0.213189V0H115.082C116.429 0 117.742 0.172399 119.006 0.495871C110.9 2.56483 104.791 10.8978 104.791 20.7869C104.791 30.6746 110.901 39.0105 119.006 41.0802C117.741 41.4035 116.429 41.5753 115.082 41.5753H64.2924C45.3328 41.3705 41.9859 74.8622 64.2924 77.1913H115.082C116.428 77.1913 117.741 77.3629 119.006 77.6849C110.9 79.7547 104.791 88.0891 104.791 97.9782C104.791 107.868 110.9 116.2 119.005 118.271C117.741 118.593 116.428 118.765 115.082 118.765H62.0268V118.552C35.3967 116.082 14.4561 90.5373 14.4561 59.3829Z" fill="#525252"/>
<path fill-rule="evenodd" clip-rule="evenodd" d="M229.778 59.3835C229.778 90.5373 208.837 116.082 182.206 118.552V118.765H129.152C119.175 118.765 111.013 109.412 111.013 97.9782C111.013 86.546 119.175 77.1913 129.152 77.1913H179.941C198.901 77.3961 202.248 43.9029 179.941 41.5753H129.152C119.177 41.5753 111.013 32.2192 111.013 20.7884C111.013 9.35406 119.175 0 129.152 0H182.206V0.213189C208.837 2.68495 229.778 28.2284 229.778 59.3835Z" fill="#FFCB00"/>
<path fill-rule="evenodd" clip-rule="evenodd" d="M118.607 77.7066C110.551 80.0209 104.792 88.5491 104.792 97.9784C104.792 107.409 110.527 115.846 118.633 118.161V116.359C113.28 112.735 108.926 105.583 108.926 97.9784C108.926 90.3756 112.961 82.95 118.543 79.6638L118.607 77.7066Z" fill="white"/>
<path fill-rule="evenodd" clip-rule="evenodd" d="M118.889 0.44342C110.604 2.73192 104.792 11.1074 104.792 20.5367C104.792 29.9674 110.067 38.4677 118.864 41.0899L118.633 39.1917C113.28 35.5673 108.926 28.1409 108.926 20.5367C108.926 12.9338 113.154 5.66163 118.582 2.44658L118.889 0.44342Z" fill="white"/>
</svg>
