<svg width="60" height="60" viewBox="0 0 60 60" fill="none" xmlns="http://www.w3.org/2000/svg">
<path d="M18.4487 30.8067V39.308C14.7891 39.2754 11.9694 38.4722 10.3496 37.7342V29.2939C12.7493 30.1869 15.569 30.7781 18.4487 30.8067ZM34.4069 33.0333H41.2462V35.853H34.4069V33.0333Z" fill="#E0E0E0"/>
<path d="M10.7695 15.4553H16.4689V17.1351H10.7695V15.4553Z" fill="#FF7415"/>
<path d="M12.749 16.2953H14.3688V26.1342H12.749V16.2953ZM20.4882 17.9751H26.1875V19.5349H20.4882V17.9751ZM20.4882 21.1548H26.1875V22.8346H20.4882V21.1548ZM38.4261 13.0557H30.2071V6.28141C30.2071 4.89514 31.4207 3.69678 32.7215 3.69678H35.9834C37.289 3.69678 38.4261 4.89514 38.4261 6.28141V13.0557ZM31.8869 11.4359H36.8063V6.28141C36.8063 5.8002 36.3896 5.3166 35.9834 5.3166H32.7215C32.32 5.3166 31.8869 5.8002 31.8869 6.28141V11.4359Z" fill="#FF7415"/>
<path d="M28.2575 23.4786C28.1513 23.2661 27.3435 22.6484 25.5236 22.0249L26.0524 20.4475C27.4773 20.9358 29.8675 22.0545 29.8675 23.3144H28.2366C28.2366 23.6143 28.2573 23.4781 28.2575 23.4786ZM16.8821 21.0284L16.7575 19.4022C17.8925 19.315 19.0162 19.3055 20.1314 19.374L20.0319 21.0017C18.9912 20.9381 17.9428 20.9468 16.8821 21.0284ZM8.6375 23.5024C8.63792 23.5017 8.66516 23.6143 8.66516 23.3144H7.03418C7.03418 23.3144 7.03418 22.0289 9.99305 20.8459L10.5987 22.3602C9.2057 22.9173 8.70361 23.3832 8.6375 23.5024Z" fill="#262626"/>
<path d="M18.6524 56.0255C13.5302 56.0255 7.0498 54.1059 7.0498 51.9481V23.3145H8.66974L8.64209 23.218C8.99905 23.8625 13.1206 25.8298 18.6593 25.8298C24.1202 25.8298 27.933 23.8896 28.262 23.2304L28.2412 23.3145H29.8473V51.9481C29.8473 53.9676 24.2064 56.0255 18.6524 56.0255ZM8.66962 51.8486C9.26956 52.5318 13.2312 54.3945 18.6524 54.3945C24.0159 54.3945 27.8075 52.5562 28.2274 51.8661V25.3366C26.1877 26.5566 22.3799 27.4836 18.6524 27.4836C15.1139 27.4836 10.9494 26.5674 8.66962 25.2896V51.8486Z" fill="#262626"/>
<path d="M17.1883 26.614H15.5685V13.8355H11.489V25.2342H9.86914V12.2756H17.1883V26.614Z" fill="#262626"/>
<path d="M17.1883 13.8355H9.86914V9.95091C9.86914 8.56465 11.0336 7.3562 12.3344 7.3562H14.7808C16.0865 7.3562 17.1883 8.56465 17.1883 9.95091V13.8355ZM11.489 12.2757H15.5685V9.95091C15.5685 9.4697 15.187 8.97602 14.7808 8.97602H12.3344C11.9328 8.97602 11.489 9.4697 11.489 9.95091V12.2757ZM19.708 18.7549H21.2079V26.614H19.708V18.7549ZM25.4074 18.7549H27.0872V25.2342H25.4074V18.7549ZM27.0872 18.7549H25.4074V15.6592C25.4074 15.178 24.9727 14.6754 24.5665 14.6754H22.1201C21.7185 14.6754 21.2079 15.178 21.2079 15.6592V18.7549H19.708V15.6592C19.708 14.2729 20.8193 13.0556 22.1201 13.0556H24.5665C25.8722 13.0556 27.0872 14.2729 27.0872 15.6592V18.7549ZM24.9874 29.7337H26.6073V46.0519H24.9874V29.7337ZM18.6544 52.7636C15.0614 52.7636 12.2212 51.9815 10.8478 51.5153L11.3722 49.9711C13.5468 50.7093 16.2011 51.1326 18.6543 51.1326C21.8691 51.1326 24.3389 50.4505 25.5251 50.0439L26.0539 51.5865C23.8403 52.3455 21.2123 52.7636 18.6544 52.7636ZM48.6231 52.6511H29.4869V50.9713H48.6231C50.0203 50.9713 51.0845 49.9917 51.0845 48.6861V11.9896C51.0845 10.6033 49.9287 9.39603 48.6231 9.39603H38.4259V7.71622H48.6231C50.8357 7.71622 52.7643 9.69492 52.7643 11.9896V48.6862C52.7643 50.8849 50.912 52.6511 48.6231 52.6511ZM21.2079 7.71616H30.2069V9.39597H21.2079V7.71616Z" fill="#262626"/>
<path d="M44.9535 47.6717H33.5368C32.5792 47.6717 31.8867 47.1082 31.8867 46.2395V44.6085C31.8867 43.7634 32.5784 42.8122 33.5368 42.8122H46.5844C46.889 42.8122 47.425 42.6828 47.425 42.1621V14.0283C47.425 13.5471 46.9906 13.0556 46.5844 13.0556H38.426V11.4358H46.5844C47.89 11.4358 49.0448 12.642 49.0448 14.0283V42.1621C49.0448 43.1966 48.3849 44.0296 47.425 44.331V45.6279C47.425 46.837 46.3736 47.6717 44.9535 47.6717ZM33.5065 46.0519H44.9534C45.2832 46.0519 45.7452 45.9622 45.7452 45.6279V44.492H33.6083C33.5746 44.492 33.5065 44.5673 33.5065 44.6085V46.0519Z" fill="#262626"/>
<path d="M29.8477 15.4553H44.1261V17.1351H29.8477V15.4553ZM31.5275 19.1149H44.1261V20.7347H31.5275V19.1149ZM31.5275 22.8345H44.1261V24.4543H31.5275V22.8345ZM31.5275 26.6141H44.1261V28.1139H31.5275V26.6141ZM44.1261 38.7327H31.5275V30.1537H44.1261V38.7327ZM33.1473 37.0529H42.5062V31.7735H33.1473V37.0529Z" fill="#262626"/>
</svg>
