<svg width="218" height="247" viewBox="0 0 218 247" fill="none" xmlns="http://www.w3.org/2000/svg">
<path d="M73.5 245L74.5 243L76.5 244L78.5 242.5L80 241L82.5 240L83.5 239.5L85.5 236.5L86.5 233.5L86 232V228L88 226L90 225L91 224.5L93 224L96.5 223L99 222L100 221L102 221.5L104 221L110 222L105 220.5L103.5 220L100.5 219.5V218C100.5 217.5 100.6 216.4 101 216L102.5 214.5L104.5 211.5L105.5 209.5L106.5 208L108 207L108.5 206.5V204V202L110 201L111 199.5H113.5H115H118.5L120 200.5L120.5 200L119.5 196.5V193L119 191L118.5 190.5L116.5 188.5V187.5L117.5 187L119 185.5V185V183V181.5V181L118.5 179V178.5L118 177.5L117 175.5L117.5 173L117 171.5L116 170.5L114 168.5L115 166.5L117.5 166L119 166.5H119.5H120.5L118.5 165C118.833 164.833 119.6 164.4 120 164C120.4 163.6 121.167 162.5 121.5 162L124 159.5V157.5L124.5 156H125H126V153.5L127 152.5L127.5 151.5V146.5L128.5 146V144.5V140.5L128 139L127 138L125.5 136.5L125 137.5L124 136.5L123 136L122.5 138C121.833 138.667 120.5 140.1 120.5 140.5C120.5 141 120.5 141 120 141.5C119.6 141.9 117.833 143 117 143.5L115 142.5L112.5 141L111.5 140.5C111.167 141.167 110.5 142.6 110.5 143C110.5 143.4 109.5 144.5 109 145L107.5 147L106.5 147.5L105.5 147H104L102.5 146L101.5 145.5L100 144.5H97L96.5 150L95 152L93.5 154L92 155.5H90.5L90 154.5L87.5 152L85.5 151L82.5 149.5L80.7884 151L79.5 152L79 153.5L78.5 154.5H76L74.5 155L75 157C74.8333 157 74.6 157.1 75 157.5C75.5 158 76.5 158.5 76 159.5C75.6 160.3 75.1667 160.833 75 161L74 162L72.5 163C73.5 163.167 75.6 163.5 76 163.5H78C78.1667 163.5 78.5 163.6 78.5 164V166.5C78.5 166.9 78.1667 167.333 78 167.5C77.6667 167.667 76.9 168.1 76.5 168.5C76 169 76.5 169 75.5 169H73.5L73 170.5V173C72.8333 172.667 72.4 172 72 172C71.5 172 70 171.5 69.5 171.5H67C66.6 171.5 66.1667 171.833 66 172L63.5 171.5H63C62.3333 171.167 61 170.6 61 171V173.5C60.8333 173.667 60.5 174.1 60.5 174.5C60.5 174.9 59.5 175 59 175L54 174.5C54.3333 174.333 54.9 174 54.5 174C54.1 174 51.6667 173.333 50.5 173L49.5 175C49 175.167 48.1 175.6 48.5 176C49 176.5 48.5 177 50 177.5C51.5 178 53.5 179.5 54 180C54.5 180.5 54.5 179.5 55 180.5C55.4 181.3 54.1667 181.833 53.5 182L53 182.5C53.5 182.667 54.7 183 55.5 183C56.5 183 58 183 58 183.5C58 183.9 58.3333 185 58.5 185.5L58 187C57.7518 187.333 57.2042 188 57 188C56.7958 188 56.9149 188.333 57 188.5L59.5 189L60.5 191C60.5 191.833 60.6 193.6 61 194C61.5 194.5 60.5 196 60.5 196.5C60.5 197 60 197 60 198C60 198.8 60.3333 200.667 60.5 201.5L62 202.5H64L65.5 201L67 200L70 202C69.8333 202.5 69.5 203.6 69.5 204C69.5 204.5 68.5 204.5 68.5 205C68.5 205.5 67 206.5 67 207C67 207.5 69 207 68.5 209.5C68 212 67 213.5 67 214C67 214.5 66.5 214.5 67 215L68 216C68.5 216.5 70 216 70.5 216.5C71 217 71 218 71 218.5C71 219 69.5 221 69.5 221.5C69.5 222 68.5 222 68.5 223C68.5 224 68 224.5 68 225C68 225.4 67 227.167 66.5 228C66.6667 228.667 67.1 230 67.5 230C68 230 68 230 68 230.5C68 231 67 233 67 233.5C67 234.5 67.5 236 68 236C68.5 236 68.5 237 68.5 237.5C68.5 238 67 238 67 238.5C67 239 65.5 238.5 65.5 239.5C65.5 240.3 65.0185 241.167 64.7778 241.5C65.7029 242.428 67.1644 243.664 67.5 244C67.9 244.4 69 245.167 69.5 245.5C70 245.667 71.1 246 71.5 246C71.9 246 73 245.333 73.5 245Z" fill="#B5A400"/>
<path d="M78 41H76L73.5 41.5V43.5C73.5 43.9 72.1667 45 71.5 45.5L70 46L68 45.5L67.5 46V48V48.5L67 49.5L66 50.5H63.5L64 52V52.5L63 53L62 54H61.5L61 53H59L58.5 53.5L58 54C57.6 54.4 57.5 55.1667 57.5 55.5L57 56.5L55.5 56L55 57V59.5L55.5 60L56 61H55L54 60.5L53 60H51.5H50.5H47L45.5 58H43.5L42 56.5L41 57.5L40.5 60.5L41 68.5L40 67C39.3333 67.1667 37.9 67.5 37.5 67.5H34.5H32.5L33 69.5H32L31 69L30 67.5H28L26.5 68L26 70.5C25.6667 70.6667 25 71.1 25 71.5C25 71.9 23.6667 72.3333 23 72.5L20.5 73V74L20 75H19.5C19.1 75 18.6667 74.6667 18.5 74.5V74L18 73.5H16.5L16 74L15.5 75.5H14L13 76L13.5 77.5L14 78L14.5 79L14 80.5V81H15L16 81.5H16.5L17 83.5L16.5 84.5H15L14.5 85L15.5 85.5L16 86V86.5V87.5L14.5 88.5V90H13L11.5 90.5H10.5L9 92V93L11 93.5L13 94.5L14 96L13.5 99C13.6667 99.3333 14 100.1 14 100.5C14 100.9 12.3333 101 11.5 101L12 102C12 103 12.1 105 12.5 105C12.9 105 12.6667 106 12.5 106.5H10.5H8V108.5H7L7.5 110H9H10L11 111C11.1667 111 11.5 111.1 11.5 111.5C11.5 112 11.5 113 12 113.5C12.4 113.9 13.5 115.333 14 116C13.8333 116.833 13.6 118.5 14 118.5C14.4 118.5 14.8333 118.833 15 119L15.5 121V124H16C16.3333 124.167 17 124.6 17 125C17 125.5 17 126 17.5 126.5C17.9 126.9 18.3333 128.667 18.5 129.5L19.5 136L17.5 137L18.5 138.5H19L20 141L20.5 143V145L21 147L22 149L22.5 151L26 152C27.3333 152.5 30.1 153.7 30.5 154.5C31 155.5 33.5 155.5 33.5 156C33.5 156.5 32.5 157 32.5 157.5C32.5 157.9 33.1667 159.667 33.5 160.5C34 161.167 35.3 162.6 36.5 163C38 163.5 40 164.5 40 165C40 165.4 41.3333 165.833 42 166C41.6667 166.5 41.2 167.5 42 167.5C43 167.5 43.5 168 44 168C44.5 168 46.5 167 46.5 167.5C46.5 167.9 47.8333 169.333 48.5 170L51 171L53 173L54.5 174C54.9 174 54.3333 174.333 54 174.5L59 175C59.5 175 60.5 174.9 60.5 174.5C60.5 174.1 60.8333 173.667 61 173.5V171C61 170.6 62.3333 171.167 63 171.5H63.5L66 172C66.1667 171.833 66.6 171.5 67 171.5H69.5C70 171.5 71.5 172 72 172C72.4 172 72.8333 172.667 73 173V170.5L73.5 169H75.5C76.5 169 76 169 76.5 168.5C76.9 168.1 77.6667 167.667 78 167.5C78.1667 167.333 78.5 166.9 78.5 166.5V164C78.5 163.6 78.1667 163.5 78 163.5H76C75.6 163.5 73.5 163.167 72.5 163L74 162L75 161C75.1667 160.833 75.6 160.3 76 159.5C76.5 158.5 75.5 158 75 157.5C74.6 157.1 74.8333 157 75 157L74.5 155L76 154.5H78.5L79 153.5L79.5 152L80.7884 151L82.5 149.5L85.5 151L87.5 152L90 150L91.5 149.5L93 146L95 143L92 140L91 140.5L89.5 137V136L87.5 135L86 134.5L84.5 132.5L85.5 130H84.5H82C82.4039 129.333 82.9693 128.1 82 128.5C81.0307 128.9 79.9295 129.333 79.5 129.5L78 131.5C77.8333 131.667 77.3 132 76.5 132H74L72.5 131.5C72.8333 130.667 73.2 129 72 129H68L67 130L65.5 131.5V128.5L64 127V123.5L63.5 120C63.5 119.167 63.4 117.5 63 117.5C62.6 117.5 62.1667 117.167 62 117L60.5 114.5L61.5 113.5L62.5 110V109L62 108L61 106H63.5L66 107.5H67L69 104.5V103.5L67.5 101L67 100L66 97C66 96.6667 66.2 95.9 67 95.5C67.8 95.1 68.3333 94.3333 68.5 94L67.5 93.2488L66 89.5H68.5L71.5 90.5C72.7 90.9 75.3333 90.6667 76.5 90.5L77 89L76 87L75.5 81.5L78 82.5C77.8333 81.8333 77.4 80.5 77 80.5C76.6 80.5 75.1667 80.1667 74.5 80H72H71L74.5 78H75L76 76.5L75.5 74.5L75 72L75.5 67L74 65.5L74.5 64C74.6667 63.6667 75.2 63 76 63C76.8 63 78.6667 61.6667 79.5 61L81 60.5L80.5 59H80C79.5 59 79 58.5 78.5 58.5H75L75.5 56.5C75.6667 56.3333 76.2 55.9 77 55.5C77.8 55.1 79.3333 53 80 52V51.5V47.5L80.5 45.5L79 45L77.5 43.5L76 43L78.5 42L78 41Z" fill="#867900"/>
<path d="M22.5 151L23 152.5L24.5 154.5L25 156.5L25.5 158L27 161L27.5 163.5L28.5 166C29.1667 166.167 30.5 166.6 30.5 167C30.5 167.5 31 169.5 31.5 170C31.9 170.4 33.3333 171.167 34 171.5L35.5 172L36.5 173.5L36 175.5L37.5 177L38 178.5C38.3333 178.833 39 179.6 39 180C39 180.4 39.6667 181.5 40 182L40.5 184.5L41 186.5C41.1667 186.833 41.5 187.6 41.5 188C41.5 188.4 41.8333 189.167 42 189.5L43 191C42.8333 191.333 42.6 192.1 43 192.5C43.5 193 43 193.5 43.5 194C43.9 194.4 43.6667 195.833 43.5 196.5L45 196L46 198C45.8333 198.667 45.6 200.1 46 200.5C46.4 200.9 46.1667 202 46 202.5L48 202V204C47.8333 204.5 47.5 205.6 47.5 206V207L49 209C49.3333 209.333 50 210.1 50 210.5C50 210.9 50.6667 211.667 51 212L51.5 214C51.6667 214.167 52 214.6 52 215V216.5C51.1667 216.5 49.5 216.6 49.5 217C49.5 217.5 49 217.5 49 218C49 218.5 49.5 220 50 220.5C50.4 220.9 50.8333 222 51 222.5L52 224.5L52.5 226.5L53 227L54.5 226.5L55 229L54.5 229.5L55.5 232L56 233L60.5 236.5C61.6667 237.667 64 240.1 64 240.5C64 240.664 64.3245 241.045 64.7778 241.5C65.0185 241.167 65.5 240.3 65.5 239.5C65.5 238.5 67 239 67 238.5C67 238 68.5 238 68.5 237.5C68.5 237 68.5 236 68 236C67.5 236 67 234.5 67 233.5C67 233 68 231 68 230.5C68 230 68 230 67.5 230C67.1 230 66.6667 228.667 66.5 228C67 227.167 68 225.4 68 225C68 224.5 68.5 224 68.5 223C68.5 222 69.5 222 69.5 221.5C69.5 221 71 219 71 218.5C71 218 71 217 70.5 216.5C70 216 68.5 216.5 68 216L67 215C66.5 214.5 67 214.5 67 214C67 213.5 68 212 68.5 209.5C69 207 67 207.5 67 207C67 206.5 68.5 205.5 68.5 205C68.5 204.5 69.5 204.5 69.5 204C69.5 203.6 69.8333 202.5 70 202L67 200L65.5 201L64 202.5H62L60.5 201.5C60.3333 200.667 60 198.8 60 198C60 197 60.5 197 60.5 196.5C60.5 196 61.5 194.5 61 194C60.6 193.6 60.5 191.833 60.5 191L59.5 189L57 188.5C56.9149 188.333 56.7958 188 57 188C57.2042 188 57.7518 187.333 58 187L58.5 185.5C58.3333 185 58 183.9 58 183.5C58 183 56.5 183 55.5 183C54.7 183 53.5 182.667 53 182.5L53.5 182C54.1667 181.833 55.4 181.3 55 180.5C54.5 179.5 54.5 180.5 54 180C53.5 179.5 51.5 178 50 177.5C48.5 177 49 176.5 48.5 176C48.1 175.6 49 175.167 49.5 175L50.5 173C51.6667 173.333 54.1 174 54.5 174L53 173L51 171L48.5 170C47.8333 169.333 46.5 167.9 46.5 167.5C46.5 167 44.5 168 44 168C43.5 168 43 167.5 42 167.5C41.2 167.5 41.6667 166.5 42 166C41.3333 165.833 40 165.4 40 165C40 164.5 38 163.5 36.5 163C35.3 162.6 34 161.167 33.5 160.5C33.1667 159.667 32.5 157.9 32.5 157.5C32.5 157 33.5 156.5 33.5 156C33.5 155.5 31 155.5 30.5 154.5C30.1 153.7 27.3333 152.5 26 152L22.5 151Z" fill="#079300"/>
<path d="M125.5 136.5L124.5 133V130L126 132L127.5 135L128.5 136L127 131L127.5 127.5L126.5 125V122L124 121.5L126 119.5L127 119V114.5V113.5L126 112.5L125 111V108V107.5L124 107L124.5 104.5L125 103L126 101L126.5 98.5L128 97.5V96V95H129V94L130 92.5L131 91.5L133 91C133.333 90.8333 134.1 90.5 134.5 90.5C134.9 90.5 135.667 90.1667 136 90L139 90.5L139.5 91.5L140 92.5H142L142.5 92L143.5 90.5L144.5 89L145.5 87V86L147 85.5L147.5 83.5V82.5L149 81L150 80H151.5L153.5 80.5L155.5 82L156.5 83H158L159.5 81.5L163 79H163.5L164.5 78.5L165.5 78H166L166.5 76V75L165 73.5L164.5 73L166.5 72.5L168 71.5L166.5 69L167 68C167.333 67.5 168.1 66.5 168.5 66.5C168.9 66.5 171 65.5 172 65C173.167 63.6667 175.6 61 176 61C176.4 61 178.167 60.3333 179 60L182.5 58.5L183.5 57.5C184 57 185 57 185 56.5C185 56 184.5 54.5 185 54C185.4 53.6 186.167 53.1667 186.5 53C186.833 52.6667 187.6 52 188 52C188.5 52 189.5 51 190.5 50.5C191.3 50.1 191.833 50 192 50L196.5 46C197 45.6667 198.1 45 198.5 45C198.9 45 200 44.3333 200.5 44L201 43.5L200.5 41.5L202 40L203.5 39.5L205 37L207 36L208.5 33.5V33L210.5 31L212 30V28.5L211 27.5C210.667 27.5 210 27.6 210 28C210 28.4 209 29.1667 208.5 29.5L205 33L203 36L199.5 35.5V34H197H195V32.5L194 32L191.5 28.5L189.5 29.5L188 31.5C187.667 32.3333 186.9 34 186.5 34C186.1 34 185 34.3333 184.5 34.5L181 35.5L181.5 37L180 37.5L179 38L180 38.5L180.5 39.5L181 40.5L180.5 42.5L179.5 43.5L179 44.5H177.5V43.5V42.5H175.5L175 43.5C174.833 43.6667 174.5 44.1 174.5 44.5C174.5 45 173.5 44.5 173.5 45C173.5 45.4 172.5 45.5 172 45.5V44V42.5L171.5 41V40.5L169.5 40L168.5 42C168.333 42.8333 168 44.6 168 45C168 45.4 167.667 46.8333 167.5 47.5V49H166.5L166 50L165.5 50.5L164.5 50L164 48.5C163.667 48.6667 162.9 49 162.5 49C162.1 49 161 49.3333 160.5 49.5H160L157.2 51.5L157 54C156.5 54.1667 155.4 54.5 155 54.5C154.5 54.5 154.5 55.5 153.5 56.5C152.5 57.5 153 58 152.5 58C152 58 153 59.5 153.5 60C153.9 60.4 153 60.8333 152.5 61C152.167 61.1667 151.4 61.5 151 61.5H149C148.6 61.5 147.5 62.1667 147 62.5V64.5L146 65.5H144H142C141.6 65.5 141.167 65.8333 141 66V67L140.5 68L139.5 68.5H138.5C138 68.5 138 67.5 137.5 66.5C137.1 65.7 136.667 65.8333 136.5 66H135.5C135.167 66.5 134.4 67.5 134 67.5C133.6 67.5 133.5 67.1667 133.5 67L133 66.5H132.5L131.5 67V68L132.5 69C133.333 69.5 135.1 70.5 135.5 70.5C135.9 70.5 136.333 71.1667 136.5 71.5L134.5 73.5C134 73.5 133 73.4 133 73C133 72.5 131.5 72 131 71C130.5 70 130 69.5 129 68.5L128.5 68H127.5L126 68.5L125 71L127 73L126 74.5C124.833 75.1667 122.2 76.2 121 75C119.8 73.8 119.833 74.1667 120 74.5L118.5 75C118 75.5 116.8 76.5 116 76.5H113.5L112 78.5L111 80.5L110 82.5L108.5 83.5H107.5L105 82.5C104.667 83 103.9 84.2 103.5 85C103.1 85.8 103.333 86 103.5 86V87C102.667 87.3333 100.9 88 100.5 88C100 88 97 87 96 87H91.5V88L90 90.5H84.5L82 89.5L79.5 88L77 89L76.5 90.5C75.3333 90.6667 72.7 90.9 71.5 90.5L68.5 89.5H66L67.5 93.2488L68.5 94C68.3333 94.3333 67.8 95.1 67 95.5C66.2 95.9 66 96.6667 66 97L67 100L67.5 101L69 103.5V104.5L67 107.5H66L63.5 106H61L62 108L62.5 109V110L61.5 113.5L60.5 114.5L62 117C62.1667 117.167 62.6 117.5 63 117.5C63.4 117.5 63.5 119.167 63.5 120L64 123.5V127L65.5 128.5V131.5L67 130L68 129H72C73.2 129 72.8333 130.667 72.5 131.5L74 132H76.5C77.3 132 77.8333 131.667 78 131.5L79.5 129.5C79.9295 129.333 81.0307 128.9 82 128.5C82.9693 128.1 82.4039 129.333 82 130H84.5H85.5L84.5 132.5L86 134.5L87.5 135L89.5 136V137L91 140.5L92 140L95 143L93 146L91.5 149.5L90 150L87.5 152L90 154.5L90.5 155.5H92L93.5 154L95 152L96.5 150L97 144.5H100L101.5 145.5L102.5 146L104 147H105.5L106.5 147.5L107.5 147L109 145C109.5 144.5 110.5 143.4 110.5 143C110.5 142.6 111.167 141.167 111.5 140.5L112.5 141L115 142.5L117 143.5C117.833 143 119.6 141.9 120 141.5C120.5 141 120.5 141 120.5 140.5C120.5 140.1 121.833 138.667 122.5 138L123 136L124 136.5L125 137.5L125.5 136.5Z" fill="#BE0000"/>
<path d="M153 54.5H145.5L143 54V50.5L139 45.5L137.5 46.5V44L136.5 41L134.5 37.5H132.5L131.5 38H131L129.5 37H127.5H126L124 36.5L122.5 34.5V32.5L123.5 30.5L122 29.5L121.5 28L122.5 27L124 25V21H123L121.5 20L120.5 19.5L120 19L118.5 18.5L117.5 19L115.5 19.5L114.5 20L114 20.5L113 19.5L112.5 19L112 18H111L110 17.5C109.833 17.6667 109.5 18.1 109.5 18.5V20L109 20.5C109 20.1667 108.9 19.5 108.5 19.5H107C106.2 19.5 105 19.1667 104.5 19H104L103.5 18.5L104 17.5L103 17L102.5 16.5V15V14H102H101L96 14.5C95.8333 14 95.4 13 95 13C94.6 13 94.1667 12.6667 94 12.5L93 12L93.5 13.5L92.5 16V18.5L92 19.5V20.5C91.8333 20.6667 91.4 21 91 21C90.2 21.4 89.6667 21.5 89.5 21.5H88.5L90 23V24V24.5H89H88L87.5 24L85 23.5L84.5 24C84 24.5 83 25.6 83 26C83 26.4 82.6667 27.8333 82.5 28.5L84 30C84 30.1667 84.1 30.5 84.5 30.5C85 30.5 84.5 31.5 85 31.5C85.4 31.5 85.1667 32.1667 85 32.5H83L82 33L81.5 35.5L81 37.5L78 38L77 38.5L78 40.5V41L78.5 42L76 43L77.5 43.5L79 45L80.5 45.5L80 47.5V51.5V52C79.3333 53 77.8 55.1 77 55.5C76.2 55.9 75.6667 56.3333 75.5 56.5L75 58.5H78.5C79 58.5 79.5 59 80 59H80.5L81 60.5L79.5 61C78.6667 61.6667 76.8 63 76 63C75.2 63 74.6667 63.6667 74.5 64L74 65.5L75.5 67L75 72L75.5 74.5L76 76.5L75 78H74.5L71 80H72H74.5C75.1667 80.1667 76.6 80.5 77 80.5C77.4 80.5 77.8333 81.8333 78 82.5L75.5 81.5L76 87L77 89L79.5 88L82 89.5L84.5 90.5H90L91.5 88V87H96C97 87 100 88 100.5 88C100.9 88 102.667 87.3333 103.5 87V86C103.333 86 103.1 85.8 103.5 85C103.9 84.2 104.667 83 105 82.5L107.5 83.5H108.5L110 82.5L111 80.5L112 78.5L113.5 76.5H116C116.8 76.5 118 75.5 118.5 75L120 74.5C119.833 74.1667 119.8 73.8 121 75C122.2 76.2 124.833 75.1667 126 74.5L127 73L125 71L126 68.5L127.5 68H128.5L129 68.5C130 69.5 130.5 70 131 71C131.5 72 133 72.5 133 73C133 73.4 134 73.5 134.5 73.5L136.5 71.5C136.333 71.1667 135.9 70.5 135.5 70.5C135.1 70.5 133.333 69.5 132.5 69L131.5 68V67L132.5 66.5H133L133.5 67C133.5 67.1667 133.6 67.5 134 67.5C134.4 67.5 135.167 66.5 135.5 66H136.5C136.667 65.8333 137.1 65.7 137.5 66.5C138 67.5 138 68.5 138.5 68.5H139.5L140.5 68L141 67V66C141.167 65.8333 141.6 65.5 142 65.5H144H146L147 64.5V62.5C147.5 62.1667 148.6 61.5 149 61.5H151C151.4 61.5 152.167 61.1667 152.5 61C153 60.8333 153.9 60.4 153.5 60C153 59.5 152 58 152.5 58C153 58 152.5 57.5 153.5 56.5C154.5 55.5 154.5 54.5 155 54.5C155.4 54.5 156.5 54.1667 157 54L157.2 51.5L153 54.5Z" fill="#1E0673"/>
<path d="M77 245.5L78 243.5L80 244.5L82 243L83.5 241.5L86 240.5L87 240L89 237L90 234L89.5 232.5V228.5L91.5 226.5L93.5 225.5L94.5 225L96.5 224.5L100 223.5L102.5 222.5L103.5 221.5L105.5 222L107.5 221.5L113.5 222.5L108.5 221L107 220.5L104 220V218.5C104 218 104.1 216.9 104.5 216.5L106 215L108 212L109 210L110 208.5L111.5 207.5L112 207V204.5V202.5L113.5 201.5L114.5 200H117H118.5H122L123.5 201L124 200.5L123 197V193.5L122.5 191.5L122 191L120 189V188L121 187.5L122.5 186V185.5V183.5V182V181.5L122 179.5V179L121.5 178L120.5 176L121 173.5L120.5 172L119.5 171L117.5 169L118.5 167L121 166.5L122.5 167H123H124L122 165.5C122.333 165.333 123.1 164.9 123.5 164.5C123.9 164.1 124.667 163 125 162.5L127.5 160V158L128 156.5H128.5H129.5V154L130.5 153L131 152V147L132 146.5V145V141L131.5 139.5L130.5 138.5L129 137L128.5 138L127.5 137L126.5 136.5L126 138.5C125.333 139.167 124 140.6 124 141C124 141.5 124 141.5 123.5 142C123.1 142.4 121.333 143.5 120.5 144L118.5 143L116 141.5L115 141C114.667 141.667 114 143.1 114 143.5C114 143.9 113 145 112.5 145.5L111 147.5L110 148L109 147.5H107.5L106 146.5L105 146L103.5 145H100.5L100 150.5L98.5 152.5L97 154.5L95.5 156H94L93.5 155L91 152.5L89 151.5L86 150L84.2884 151.5L83 152.5L82.5 154L82 155H79.5L78 155.5L78.5 157.5C78.3333 157.5 78.1 157.6 78.5 158C79 158.5 80 159 79.5 160C79.1 160.8 78.6667 161.333 78.5 161.5L77.5 162.5L76 163.5C77 163.667 79.1 164 79.5 164H81.5C81.6667 164 82 164.1 82 164.5V167C82 167.4 81.6667 167.833 81.5 168C81.1667 168.167 80.4 168.6 80 169C79.5 169.5 80 169.5 79 169.5H77L76.5 171V173.5C76.3333 173.167 75.9 172.5 75.5 172.5C75 172.5 73.5 172 73 172H70.5C70.1 172 69.6667 172.333 69.5 172.5L67 172H66.5C65.8333 171.667 64.5 171.1 64.5 171.5V174C64.3333 174.167 64 174.6 64 175C64 175.4 63 175.5 62.5 175.5L57.5 175C57.8333 174.833 58.4 174.5 58 174.5C57.6 174.5 55.1667 173.833 54 173.5L53 175.5C52.5 175.667 51.6 176.1 52 176.5C52.5 177 52 177.5 53.5 178C55 178.5 57 180 57.5 180.5C58 181 58 180 58.5 181C58.9 181.8 57.6667 182.333 57 182.5L56.5 183C57 183.167 58.2 183.5 59 183.5C60 183.5 61.5 183.5 61.5 184C61.5 184.4 61.8333 185.5 62 186L61.5 187.5C61.2518 187.833 60.7042 188.5 60.5 188.5C60.2958 188.5 60.4149 188.833 60.5 189L63 189.5L64 191.5C64 192.333 64.1 194.1 64.5 194.5C65 195 64 196.5 64 197C64 197.5 63.5 197.5 63.5 198.5C63.5 199.3 63.8333 201.167 64 202L65.5 203H67.5L69 201.5L70.5 200.5L73.5 202.5C73.3333 203 73 204.1 73 204.5C73 205 72 205 72 205.5C72 206 70.5 207 70.5 207.5C70.5 208 72.5 207.5 72 210C71.5 212.5 70.5 214 70.5 214.5C70.5 215 70 215 70.5 215.5L71.5 216.5C72 217 73.5 216.5 74 217C74.5 217.5 74.5 218.5 74.5 219C74.5 219.5 73 221.5 73 222C73 222.5 72 222.5 72 223.5C72 224.5 71.5 225 71.5 225.5C71.5 225.9 70.5 227.667 70 228.5C70.1667 229.167 70.6 230.5 71 230.5C71.5 230.5 71.5 230.5 71.5 231C71.5 231.5 70.5 233.5 70.5 234C70.5 235 71 236.5 71.5 236.5C72 236.5 72 237.5 72 238C72 238.5 70.5 238.5 70.5 239C70.5 239.5 69 239 69 240C69 240.8 68.5185 241.667 68.2778 242C69.2029 242.928 70.6644 244.164 71 244.5C71.4 244.9 72.5 245.667 73 246C73.5 246.167 74.6 246.5 75 246.5C75.4 246.5 76.5 245.833 77 245.5Z" fill="#EDD918"/>
<path d="M131 134L130 130.5V127.5L131.5 129.5L133 132.5L134 133.5L132.5 128.5L133 125L132 122.5V119.5L129.5 119L131.5 117L132.5 116.5V112V111L131.5 110L130.5 108.5V105.5V105L129.5 104.5L130 102L130.5 100.5L131.5 98.5L132 96L133.5 95V93.5V92.5H134.5V91.5L135.5 90L136.5 89L138.5 88.5C138.833 88.3333 139.6 88 140 88C140.4 88 141.167 87.6667 141.5 87.5L144.5 88L145 89L145.5 90H147.5L148 89.5L149 88L150 86.5L151 84.5V83.5L152.5 83L153 81V80L154.5 78.5L155.5 77.5H157L159 78L161 79.5L162 80.5H163.5L165 79L168.5 76.5H169L170 76L171 75.5H171.5L172 73.5V72.5L170.5 71L170 70.5L172 70L173.5 69L172 66.5L172.5 65.5C172.833 65 173.6 64 174 64C174.4 64 176.5 63 177.5 62.5C178.667 61.1667 181.1 58.5 181.5 58.5C181.9 58.5 183.667 57.8333 184.5 57.5L188 56L189 55C189.5 54.5 190.5 54.5 190.5 54C190.5 53.5 190 52 190.5 51.5C190.9 51.1 191.667 50.6667 192 50.5C192.333 50.1667 193.1 49.5 193.5 49.5C194 49.5 195 48.5 196 48C196.8 47.6 197.333 47.5 197.5 47.5L202 43.5C202.5 43.1667 203.6 42.5 204 42.5C204.4 42.5 205.5 41.8333 206 41.5L206.5 41L206 39L207.5 37.5L209 37L210.5 34.5L212.5 33.5L214 31V30.5L216 28.5L217.5 27.5V26L216.5 25C216.167 25 215.5 25.1 215.5 25.5C215.5 25.9 214.5 26.6667 214 27L210.5 30.5L208.5 33.5L205 33V31.5H202.5H200.5V30L199.5 29.5L197 26L195 27L193.5 29C193.167 29.8333 192.4 31.5 192 31.5C191.6 31.5 190.5 31.8333 190 32L186.5 33L187 34.5L185.5 35L184.5 35.5L185.5 36L186 37L186.5 38L186 40L185 41L184.5 42H183V41V40H181L180.5 41C180.333 41.1667 180 41.6 180 42C180 42.5 179 42 179 42.5C179 42.9 178 43 177.5 43V41.5V40L177 38.5V38L175 37.5L174 39.5C173.833 40.3333 173.5 42.1 173.5 42.5C173.5 42.9 173.167 44.3333 173 45V46.5H172L171.5 47.5L171 48L170 47.5L169.5 46C169.167 46.1667 168.4 46.5 168 46.5C167.6 46.5 166.5 46.8333 166 47H165.5L162.7 49L162.5 51.5C162 51.6667 160.9 52 160.5 52C160 52 160 53 159 54C158 55 158.5 55.5 158 55.5C157.5 55.5 158.5 57 159 57.5C159.4 57.9 158.5 58.3333 158 58.5C157.667 58.6667 156.9 59 156.5 59H154.5C154.1 59 153 59.6667 152.5 60V62L151.5 63H149.5H147.5C147.1 63 146.667 63.3333 146.5 63.5V64.5L146 65.5L145 66H144C143.5 66 143.5 65 143 64C142.6 63.2 142.167 63.3333 142 63.5H141C140.667 64 139.9 65 139.5 65C139.1 65 139 64.6667 139 64.5L138.5 64H138L137 64.5V65.5L138 66.5C138.833 67 140.6 68 141 68C141.4 68 141.833 68.6667 142 69L140 71C139.5 71 138.5 70.9 138.5 70.5C138.5 70 137 69.5 136.5 68.5C136 67.5 135.5 67 134.5 66L134 65.5H133L131.5 66L130.5 68.5L132.5 70.5L131.5 72C130.333 72.6667 127.7 73.7 126.5 72.5C125.3 71.3 125.333 71.6667 125.5 72L124 72.5C123.5 73 122.3 74 121.5 74H119L117.5 76L116.5 78L115.5 80L114 81H113L110.5 80C110.167 80.5 109.4 81.7 109 82.5C108.6 83.3 108.833 83.5 109 83.5V84.5C108.167 84.8333 106.4 85.5 106 85.5C105.5 85.5 102.5 84.5 101.5 84.5H97V85.5L95.5 88H90L87.5 87L85 85.5L82.5 86.5L82 88C80.8333 88.1667 78.2 88.4 77 88L74 87H71.5L73 90.7488L74 91.5C73.8333 91.8333 73.3 92.6 72.5 93C71.7 93.4 71.5 94.1667 71.5 94.5L72.5 97.5L73 98.5L74.5 101V102L72.5 105H71.5L69 103.5H66.5L67.5 105.5L68 106.5V107.5L67 111L66 112L67.5 114.5C67.6667 114.667 68.1 115 68.5 115C68.9 115 69 116.667 69 117.5L69.5 121V124.5L71 126V129L72.5 127.5L73.5 126.5H77.5C78.7 126.5 78.3333 128.167 78 129L79.5 129.5H82C82.8 129.5 83.3333 129.167 83.5 129L85 127C85.4295 126.833 86.5307 126.4 87.5 126C88.4693 125.6 87.9039 126.833 87.5 127.5H90H91L90 130L91.5 132L93 132.5L95 133.5V134.5L96.5 138L97.5 137.5L100.5 140.5L98.5 143.5L97 147L95.5 147.5L93 149.5L95.5 152L96 153H97.5L99 151.5L100.5 149.5L102 147.5L102.5 142H105.5L107 143L108 143.5L109.5 144.5H111L112 145L113 144.5L114.5 142.5C115 142 116 140.9 116 140.5C116 140.1 116.667 138.667 117 138L118 138.5L120.5 140L122.5 141C123.333 140.5 125.1 139.4 125.5 139C126 138.5 126 138.5 126 138C126 137.6 127.333 136.167 128 135.5L128.5 133.5L129.5 134L130.5 135L131 134Z" fill="#FF4B4B"/>
<path d="M21 155L21.5 156.5L23 158.5L23.5 160.5L24 162L25.5 165L26 167.5L27 170C27.6667 170.167 29 170.6 29 171C29 171.5 29.5 173.5 30 174C30.4 174.4 31.8333 175.167 32.5 175.5L34 176L35 177.5L34.5 179.5L36 181L36.5 182.5C36.8333 182.833 37.5 183.6 37.5 184C37.5 184.4 38.1667 185.5 38.5 186L39 188.5L39.5 190.5C39.6667 190.833 40 191.6 40 192C40 192.4 40.3333 193.167 40.5 193.5L41.5 195C41.3333 195.333 41.1 196.1 41.5 196.5C42 197 41.5 197.5 42 198C42.4 198.4 42.1667 199.833 42 200.5L43.5 200L44.5 202C44.3333 202.667 44.1 204.1 44.5 204.5C44.9 204.9 44.6667 206 44.5 206.5L46.5 206V208C46.3333 208.5 46 209.6 46 210V211L47.5 213C47.8333 213.333 48.5 214.1 48.5 214.5C48.5 214.9 49.1667 215.667 49.5 216L50 218C50.1667 218.167 50.5 218.6 50.5 219V220.5C49.6667 220.5 48 220.6 48 221C48 221.5 47.5 221.5 47.5 222C47.5 222.5 48 224 48.5 224.5C48.9 224.9 49.3333 226 49.5 226.5L50.5 228.5L51 230.5L51.5 231L53 230.5L53.5 233L53 233.5L54 236L54.5 237L59 240.5C60.1667 241.667 62.5 244.1 62.5 244.5C62.5 244.664 62.8245 245.045 63.2778 245.5C63.5185 245.167 64 244.3 64 243.5C64 242.5 65.5 243 65.5 242.5C65.5 242 67 242 67 241.5C67 241 67 240 66.5 240C66 240 65.5 238.5 65.5 237.5C65.5 237 66.5 235 66.5 234.5C66.5 234 66.5 234 66 234C65.6 234 65.1667 232.667 65 232C65.5 231.167 66.5 229.4 66.5 229C66.5 228.5 67 228 67 227C67 226 68 226 68 225.5C68 225 69.5 223 69.5 222.5C69.5 222 69.5 221 69 220.5C68.5 220 67 220.5 66.5 220L65.5 219C65 218.5 65.5 218.5 65.5 218C65.5 217.5 66.5 216 67 213.5C67.5 211 65.5 211.5 65.5 211C65.5 210.5 67 209.5 67 209C67 208.5 68 208.5 68 208C68 207.6 68.3333 206.5 68.5 206L65.5 204L64 205L62.5 206.5H60.5L59 205.5C58.8333 204.667 58.5 202.8 58.5 202C58.5 201 59 201 59 200.5C59 200 60 198.5 59.5 198C59.1 197.6 59 195.833 59 195L58 193L55.5 192.5C55.4149 192.333 55.2958 192 55.5 192C55.7042 192 56.2518 191.333 56.5 191L57 189.5C56.8333 189 56.5 187.9 56.5 187.5C56.5 187 55 187 54 187C53.2 187 52 186.667 51.5 186.5L52 186C52.6667 185.833 53.9 185.3 53.5 184.5C53 183.5 53 184.5 52.5 184C52 183.5 50 182 48.5 181.5C47 181 47.5 180.5 47 180C46.6 179.6 47.5 179.167 48 179L49 177C50.1667 177.333 52.6 178 53 178L51.5 177L49.5 175L47 174C46.3333 173.333 45 171.9 45 171.5C45 171 43 172 42.5 172C42 172 41.5 171.5 40.5 171.5C39.7 171.5 40.1667 170.5 40.5 170C39.8333 169.833 38.5 169.4 38.5 169C38.5 168.5 36.5 167.5 35 167C33.8 166.6 32.5 165.167 32 164.5C31.6667 163.667 31 161.9 31 161.5C31 161 32 160.5 32 160C32 159.5 29.5 159.5 29 158.5C28.6 157.7 25.8333 156.5 24.5 156L21 155Z" fill="#29FF1D"/>
<path d="M71 43.5H69L66.5 44V46C66.5 46.4 65.1667 47.5 64.5 48L63 48.5L61 48L60.5 48.5V50.5V51L60 52L59 53H56.5L57 54.5V55L56 55.5L55 56.5H54.5L54 55.5H52L51.5 56L51 56.5C50.6 56.9 50.5 57.6667 50.5 58L50 59L48.5 58.5L48 59.5V62L48.5 62.5L49 63.5H48L47 63L46 62.5H44.5H43.5H40L38.5 60.5H36.5L35 59L34 60L33.5 63L34 71L33 69.5C32.3333 69.6667 30.9 70 30.5 70H27.5H25.5L26 72H25L24 71.5L23 70H21L19.5 70.5L19 73C18.6667 73.1667 18 73.6 18 74C18 74.4 16.6667 74.8333 16 75L13.5 75.5V76.5L13 77.5H12.5C12.1 77.5 11.6667 77.1667 11.5 77V76.5L11 76H9.5L9 76.5L8.5 78H7L6 78.5L6.5 80L7 80.5L7.5 81.5L7 83V83.5H8L9 84H9.5L10 86L9.5 87H8L7.5 87.5L8.5 88L9 88.5V89V90L7.5 91V92.5H6L4.5 93H3.5L2 94.5V95.5L4 96L6 97L7 98.5L6.5 101.5C6.66667 101.833 7 102.6 7 103C7 103.4 5.33333 103.5 4.5 103.5L5 104.5C5 105.5 5.1 107.5 5.5 107.5C5.9 107.5 5.66667 108.5 5.5 109H3.5H1V111H0L0.5 112.5H2H3L4 113.5C4.16667 113.5 4.5 113.6 4.5 114C4.5 114.5 4.5 115.5 5 116C5.4 116.4 6.5 117.833 7 118.5C6.83333 119.333 6.6 121 7 121C7.4 121 7.83333 121.333 8 121.5L8.5 123.5V126.5H9C9.33333 126.667 10 127.1 10 127.5C10 128 10 128.5 10.5 129C10.9 129.4 11.3333 131.167 11.5 132L12.5 138.5L10.5 139.5L11.5 141H12L13 143.5L13.5 145.5V147.5L14 149.5L15 151.5L15.5 153.5L19 154.5C20.3333 155 23.1 156.2 23.5 157C24 158 26.5 158 26.5 158.5C26.5 159 25.5 159.5 25.5 160C25.5 160.4 26.1667 162.167 26.5 163C27 163.667 28.3 165.1 29.5 165.5C31 166 33 167 33 167.5C33 167.9 34.3333 168.333 35 168.5C34.6667 169 34.2 170 35 170C36 170 36.5 170.5 37 170.5C37.5 170.5 39.5 169.5 39.5 170C39.5 170.4 40.8333 171.833 41.5 172.5L44 173.5L46 175.5L47.5 176.5C47.9 176.5 47.3333 176.833 47 177L52 177.5C52.5 177.5 53.5 177.4 53.5 177C53.5 176.6 53.8333 176.167 54 176V173.5C54 173.1 55.3333 173.667 56 174H56.5L59 174.5C59.1667 174.333 59.6 174 60 174H62.5C63 174 64.5 174.5 65 174.5C65.4 174.5 65.8333 175.167 66 175.5V173L66.5 171.5H68.5C69.5 171.5 69 171.5 69.5 171C69.9 170.6 70.6667 170.167 71 170C71.1667 169.833 71.5 169.4 71.5 169V166.5C71.5 166.1 71.1667 166 71 166H69C68.6 166 66.5 165.667 65.5 165.5L67 164.5L68 163.5C68.1667 163.333 68.6 162.8 69 162C69.5 161 68.5 160.5 68 160C67.6 159.6 67.8333 159.5 68 159.5L67.5 157.5L69 157H71.5L72 156L72.5 154.5L73.7884 153.5L75.5 152L78.5 153.5L80.5 154.5L83 152.5L84.5 152L86 148.5L88 145.5L85 142.5L84 143L82.5 139.5V138.5L80.5 137.5L79 137L77.5 135L78.5 132.5H77.5H75C75.4039 131.833 75.9693 130.6 75 131C74.0307 131.4 72.9295 131.833 72.5 132L71 134C70.8333 134.167 70.3 134.5 69.5 134.5H67L65.5 134C65.8333 133.167 66.2 131.5 65 131.5H61L60 132.5L58.5 134V131L57 129.5V126L56.5 122.5C56.5 121.667 56.4 120 56 120C55.6 120 55.1667 119.667 55 119.5L53.5 117L54.5 116L55.5 112.5V111.5L55 110.5L54 108.5H56.5L59 110H60L62 107V106L60.5 103.5L60 102.5L59 99.5C59 99.1667 59.2 98.4 60 98C60.8 97.6 61.3333 96.8333 61.5 96.5L60.5 95.7488L59 92H61.5L64.5 93C65.7 93.4 68.3333 93.1667 69.5 93L70 91.5L69 89.5L68.5 84L71 85C70.8333 84.3333 70.4 83 70 83C69.6 83 68.1667 82.6667 67.5 82.5H65H64L67.5 80.5H68L69 79L68.5 77L68 74.5L68.5 69.5L67 68L67.5 66.5C67.6667 66.1667 68.2 65.5 69 65.5C69.8 65.5 71.6667 64.1667 72.5 63.5L74 63L73.5 61.5H73C72.5 61.5 72 61 71.5 61H68L68.5 59C68.6667 58.8333 69.2 58.4 70 58C70.8 57.6 72.3333 55.5 73 54.5V54V50L73.5 48L72 47.5L70.5 46L69 45.5L71.5 44.5L71 43.5Z" fill="#FFEE48"/>
<path d="M160.8 43H153.3L150.8 42.5V39L146.8 34L145.3 35V32.5L144.3 29.5L142.3 26H140.3L139.3 26.5H138.8L137.3 25.5H135.3H133.8L131.8 25L130.3 23V21L131.3 19L129.8 18L129.3 16.5L130.3 15.5L131.8 13.5V9.5H130.8L129.3 8.5L128.3 8L127.8 7.5L126.3 7L125.3 7.5L123.3 8L122.3 8.5L121.8 9L120.8 8L120.3 7.5L119.8 6.5H118.8L117.8 6C117.633 6.16667 117.3 6.6 117.3 7V8.5L116.8 9C116.8 8.66667 116.7 8 116.3 8H114.8C114 8 112.8 7.66667 112.3 7.5H111.8L111.3 7L111.8 6L110.8 5.5L110.3 5V3.5V2.5H109.8H108.8L103.8 3C103.633 2.5 103.2 1.5 102.8 1.5C102.4 1.5 101.967 1.16667 101.8 1L100.8 0.5L101.3 2L100.3 4.5V7L99.8 8V9C99.6333 9.16667 99.2 9.5 98.8 9.5C98 9.9 97.4667 10 97.3 10H96.3L97.8 11.5V12.5V13H96.8H95.8L95.3 12.5L92.8 12L92.3 12.5C91.8 13 90.8 14.1 90.8 14.5C90.8 14.9 90.4667 16.3333 90.3 17L91.8 18.5C91.8 18.6667 91.9 19 92.3 19C92.8 19 92.3 20 92.8 20C93.2 20 92.9667 20.6667 92.8 21H90.8L89.8 21.5L89.3 24L88.8 26L85.8 26.5L84.8 27L85.8 29V29.5L86.3 30.5L83.8 31.5L85.3 32L86.8 33.5L88.3 34L87.8 36V40V40.5C87.1333 41.5 85.6 43.6 84.8 44C84 44.4 83.4667 44.8333 83.3 45L82.8 47H86.3C86.8 47 87.3 47.5 87.8 47.5H88.3L88.8 49L87.3 49.5C86.4667 50.1667 84.6 51.5 83.8 51.5C83 51.5 82.4667 52.1667 82.3 52.5L81.8 54L83.3 55.5L82.8 60.5L83.3 63L83.8 65L82.8 66.5H82.3L78.8 68.5H79.8H82.3C82.9667 68.6667 84.4 69 84.8 69C85.2 69 85.6333 70.3333 85.8 71L83.3 70L83.8 75.5L84.8 77.5L87.3 76.5L89.8 78L92.3 79H97.8L99.3 76.5V75.5H103.8C104.8 75.5 107.8 76.5 108.3 76.5C108.7 76.5 110.467 75.8333 111.3 75.5V74.5C111.133 74.5 110.9 74.3 111.3 73.5C111.7 72.7 112.467 71.5 112.8 71L115.3 72H116.3L117.8 71L118.8 69L119.8 67L121.3 65H123.8C124.6 65 125.8 64 126.3 63.5L127.8 63C127.633 62.6667 127.6 62.3 128.8 63.5C130 64.7 132.633 63.6667 133.8 63L134.8 61.5L132.8 59.5L133.8 57L135.3 56.5H136.3L136.8 57C137.8 58 138.3 58.5 138.8 59.5C139.3 60.5 140.8 61 140.8 61.5C140.8 61.9 141.8 62 142.3 62L144.3 60C144.133 59.6667 143.7 59 143.3 59C142.9 59 141.133 58 140.3 57.5L139.3 56.5V55.5L140.3 55H140.8L141.3 55.5C141.3 55.6667 141.4 56 141.8 56C142.2 56 142.967 55 143.3 54.5H144.3C144.467 54.3333 144.9 54.2 145.3 55C145.8 56 145.8 57 146.3 57H147.3L148.3 56.5L148.8 55.5V54.5C148.967 54.3333 149.4 54 149.8 54H151.8H153.8L154.8 53V51C155.3 50.6667 156.4 50 156.8 50H158.8C159.2 50 159.967 49.6667 160.3 49.5C160.8 49.3333 161.7 48.9 161.3 48.5C160.8 48 159.8 46.5 160.3 46.5C160.8 46.5 160.3 46 161.3 45C162.3 44 162.3 43 162.8 43C163.2 43 164.3 42.6667 164.8 42.5L165 40L160.8 43Z" fill="#4618ED"/>
</svg>
